<svg width="135" height="66" viewBox="0 0 135 66" fill="none" xmlns="http://www.w3.org/2000/svg">
<path d="M1.44141 37V12.3906H4.5V33.9766H14.6602V37H1.44141ZM16.6289 31.7969V23.1133C16.6289 22.0117 17.1211 20.9336 18.1055 19.8789C19.3242 18.6133 20.8477 17.9805 22.6758 17.9805V20.8281C21.293 20.8281 20.332 21.4023 19.793 22.5508C19.6289 22.9023 19.5469 23.2539 19.5469 23.6055V31.3398C19.5469 32.207 19.9453 32.9453 20.7422 33.5547C21.3047 33.9766 21.9492 34.1875 22.6758 34.1875V37.0352C20.4492 37.0352 18.7266 36.1328 17.5078 34.3281C16.9219 33.4375 16.6289 32.5938 16.6289 31.7969ZM24.1875 37.0352V34.1875C25.4297 34.1875 26.3203 33.625 26.8594 32.5C27.0469 32.125 27.1406 31.7617 27.1406 31.4102V23.6055C27.1406 22.6445 26.7305 21.8828 25.9102 21.3203C25.3945 20.9922 24.8086 20.8281 24.1523 20.8281V17.9805C26.3086 17.9805 27.9727 18.8594 29.1445 20.6172C29.7305 21.4844 30.0234 22.3164 30.0234 23.1133V31.7969C30.0234 32.9453 29.5312 34.0586 28.5469 35.1367C27.3984 36.3789 25.9453 37.0117 24.1875 37.0352ZM32.168 22.4102V19.5273H34.4883V17.4883C34.4883 16.1758 34.9219 14.9805 35.7891 13.9023C36.75 12.7773 37.9922 12.2031 39.5156 12.1797H40.8164L40.1484 15.0273H39.4805C38.1445 15.0977 37.4648 15.918 37.4414 17.4883V19.5625L39.832 19.5273V22.4102H37.4414V37H34.4883V22.4102H32.168ZM41.8008 21.0391V18.1914H44.1211V12.1094H47.1094V18.1914H49.3594V21.0742H47.1094V31.1641C47.1094 32.8281 47.7891 33.7539 49.1484 33.9414C49.4062 33.9883 49.6641 34.0117 49.9219 34.0117H50.4141L51.082 37H49.8164C46.9336 36.9766 45.1641 35.8984 44.5078 33.7656C44.2734 32.9688 44.1562 31.9844 44.1562 30.8125L44.1211 21.0391H41.8008ZM52.6641 37V12.3906H55.7227V23.1133H58.8867V26.1016H55.7227V37H52.6641ZM60.6445 26.1016V23.1133H63.7734V12.3906H66.8672V37H63.7734V26.1016H60.6445ZM69.6094 31.7969V23.1133C69.6094 22.0117 70.1016 20.9336 71.0859 19.8789C72.3047 18.6133 73.8281 17.9805 75.6562 17.9805V20.8281C74.2734 20.8281 73.3125 21.4023 72.7734 22.5508C72.6094 22.9023 72.5273 23.2539 72.5273 23.6055V31.3398C72.5273 32.207 72.9258 32.9453 73.7227 33.5547C74.2852 33.9766 74.9297 34.1875 75.6562 34.1875V37.0352C73.4297 37.0352 71.707 36.1328 70.4883 34.3281C69.9023 33.4375 69.6094 32.5938 69.6094 31.7969ZM77.168 37.0352V34.1875C78.4102 34.1875 79.3008 33.625 79.8398 32.5C80.0273 32.125 80.1211 31.7617 80.1211 31.4102V23.6055C80.1211 22.6445 79.7109 21.8828 78.8906 21.3203C78.375 20.9922 77.7891 20.8281 77.1328 20.8281V17.9805C79.2891 17.9805 80.9531 18.8594 82.125 20.6172C82.7109 21.4844 83.0039 22.3164 83.0039 23.1133V31.7969C83.0039 32.9453 82.5117 34.0586 81.5273 35.1367C80.3789 36.3789 78.9258 37.0117 77.168 37.0352ZM85.6758 31.9375V18.0156H88.6641V31.5859C88.6641 32.4297 89.0859 33.1328 89.9297 33.6953C90.4922 34.0469 91.1133 34.2227 91.793 34.2227V37.1758C89.543 37.1758 87.8086 36.2969 86.5898 34.5391C85.9805 33.6484 85.6758 32.7812 85.6758 31.9375ZM93.3398 37.1758V34.2227C94.6055 34.2227 95.5312 33.7188 96.1172 32.7109C96.3281 32.3359 96.4336 31.9609 96.4336 31.5859V18.0156H99.4219V31.9375C99.4219 33.0391 98.918 34.1289 97.9102 35.207C96.6914 36.4961 95.168 37.1523 93.3398 37.1758ZM101.461 32.0078L104.238 31.4805C104.238 32.5352 104.789 33.3672 105.891 33.9766C106.43 34.2344 106.945 34.375 107.438 34.3984V37.1758C105.164 37.1758 103.465 36.3555 102.34 34.7148C101.754 33.8477 101.461 32.9453 101.461 32.0078ZM101.637 23.3594C101.637 21.2266 102.609 19.6445 104.555 18.6133C105.492 18.1211 106.43 17.875 107.367 17.875V20.6172C106.289 20.6172 105.457 21.0625 104.871 21.9531C104.566 22.3984 104.414 22.8672 104.414 23.3594C104.414 24.1094 105 24.7188 106.172 25.1875C107.062 25.5625 108.785 26.0547 111.34 26.6641C112.934 26.9922 114.07 27.7773 114.75 29.0195C115.102 29.6758 115.277 30.4141 115.277 31.2344C115.277 33.4844 114.375 35.1484 112.57 36.2266C111.516 36.8594 110.309 37.1758 108.949 37.1758V34.3984C110.027 34.3984 110.93 34.0234 111.656 33.2734C112.172 32.7344 112.43 32.1016 112.43 31.375C112.43 30.4375 111.504 29.6875 109.652 29.125C109.184 28.9844 108.434 28.7852 107.402 28.5273C106.301 28.2695 105.504 28.0586 105.012 27.8945C103.23 27.1914 102.152 26.125 101.777 24.6953C101.684 24.2734 101.637 23.8281 101.637 23.3594ZM108.914 20.6523V17.875C110.93 17.875 112.559 18.625 113.801 20.125C114.574 21.0859 114.961 22.0938 114.961 23.1484L112.184 23.6055C112.184 22.3164 111.48 21.4141 110.074 20.8984C109.652 20.7344 109.266 20.6523 108.914 20.6523ZM117.352 31.7969V23.0781C117.375 22 117.891 20.9336 118.898 19.8789C120.117 18.6367 121.594 18.0039 123.328 17.9805V20.7578C122.203 20.7578 121.324 21.25 120.691 22.2344C120.434 22.6562 120.305 23.043 120.305 23.3945V25.7852H128.18V23.3945C128.18 22.3398 127.641 21.5664 126.562 21.0742C126.07 20.8398 125.566 20.7227 125.051 20.7227V17.9805C126.668 17.9805 128.109 18.5547 129.375 19.7031C130.43 20.7109 130.969 21.8242 130.992 23.043V28.6328H120.305V31.7969C120.305 32.4531 120.68 33.0625 121.43 33.625C122.039 34.0469 122.684 34.2578 123.363 34.2578V37C121.23 37 119.555 36.1328 118.336 34.3984C117.68 33.4844 117.352 32.6172 117.352 31.7969ZM125.051 37V34.2227C126.457 34.2227 127.512 33.6133 128.215 32.3945C128.355 32.1367 128.461 31.8906 128.531 31.6562L131.027 32.5703C130.605 34.1875 129.645 35.4062 128.145 36.2266C127.184 36.7422 126.152 37 125.051 37Z" fill="white"/>
<path d="M3.892 58.584L1.348 54.48H2.308L4.612 58.26H6.208V54.48H7.132V58.26H8.728L11.02 54.48H11.992L9.436 58.584L12.304 63H11.332L8.848 59.004H7.132V63H6.208V59.004H4.492L2.008 63H1.036L3.892 58.584ZM15.7038 61.74L20.9838 54.48H21.6798V63H20.8398V55.86L15.6438 63H14.8758V54.48H15.7038V61.74ZM27.2123 56.736C27.1163 57.864 26.9923 58.828 26.8403 59.628C26.6963 60.428 26.5123 61.084 26.2883 61.596C26.0723 62.1 25.8083 62.472 25.4963 62.712C25.1923 62.944 24.8323 63.06 24.4163 63.06L24.2723 62.256C24.4323 62.248 24.5843 62.216 24.7283 62.16C24.8803 62.104 25.0243 62.004 25.1603 61.86C25.2963 61.708 25.4243 61.504 25.5443 61.248C25.6643 60.984 25.7763 60.648 25.8803 60.24C25.9843 59.824 26.0763 59.324 26.1563 58.74C26.2443 58.156 26.3203 57.464 26.3843 56.664L26.5643 54.48H30.8963V63H30.0683V55.224H27.3323L27.2123 56.736ZM37.957 63.06C37.365 63.06 36.821 62.94 36.325 62.7C35.837 62.452 35.417 62.128 35.065 61.728C34.713 61.32 34.441 60.856 34.249 60.336C34.057 59.816 33.961 59.284 33.961 58.74C33.961 58.172 34.061 57.628 34.261 57.108C34.469 56.588 34.753 56.128 35.113 55.728C35.473 55.328 35.897 55.012 36.385 54.78C36.873 54.54 37.401 54.42 37.969 54.42C38.561 54.42 39.101 54.548 39.589 54.804C40.085 55.052 40.505 55.38 40.849 55.788C41.201 56.196 41.473 56.66 41.665 57.18C41.857 57.692 41.953 58.216 41.953 58.752C41.953 59.32 41.849 59.864 41.641 60.384C41.441 60.904 41.161 61.364 40.801 61.764C40.449 62.156 40.029 62.472 39.541 62.712C39.053 62.944 38.525 63.06 37.957 63.06ZM34.801 58.74C34.801 59.204 34.877 59.652 35.029 60.084C35.181 60.508 35.397 60.888 35.677 61.224C35.957 61.552 36.289 61.816 36.673 62.016C37.057 62.208 37.485 62.304 37.957 62.304C38.437 62.304 38.873 62.2 39.265 61.992C39.657 61.784 39.989 61.512 40.261 61.176C40.533 60.84 40.741 60.46 40.885 60.036C41.037 59.612 41.113 59.18 41.113 58.74C41.113 58.276 41.033 57.832 40.873 57.408C40.721 56.976 40.505 56.596 40.225 56.268C39.945 55.94 39.613 55.68 39.229 55.488C38.845 55.288 38.421 55.188 37.957 55.188C37.477 55.188 37.041 55.292 36.649 55.5C36.257 55.7 35.925 55.968 35.653 56.304C35.381 56.64 35.169 57.02 35.017 57.444C34.873 57.868 34.801 58.3 34.801 58.74ZM50.2567 52.008C50.2407 52.392 50.0767 52.7 49.7647 52.932C49.4607 53.156 49.0367 53.268 48.4927 53.268C47.9487 53.268 47.5207 53.156 47.2087 52.932C46.9047 52.7 46.7447 52.392 46.7287 52.008H47.2447C47.2447 52.112 47.2767 52.212 47.3407 52.308C47.4047 52.404 47.4927 52.488 47.6047 52.56C47.7167 52.632 47.8487 52.692 48.0007 52.74C48.1527 52.78 48.3207 52.8 48.5047 52.8C48.8487 52.8 49.1327 52.728 49.3567 52.584C49.5887 52.432 49.7207 52.24 49.7527 52.008H50.2567ZM45.8167 61.74L51.0967 54.48H51.7927V63H50.9527V55.86L45.7567 63H44.9887V54.48H45.8167V61.74ZM60.7319 58.26H62.0279L64.8119 54.48H65.7719L62.7839 58.584L66.0839 63H65.1239L62.0999 59.004H60.7319V63H59.9039V54.48H60.7319V58.26ZM71.6545 63.06C71.0625 63.06 70.5185 62.94 70.0225 62.7C69.5345 62.452 69.1145 62.128 68.7625 61.728C68.4105 61.32 68.1385 60.856 67.9465 60.336C67.7545 59.816 67.6585 59.284 67.6585 58.74C67.6585 58.172 67.7585 57.628 67.9585 57.108C68.1665 56.588 68.4505 56.128 68.8105 55.728C69.1705 55.328 69.5945 55.012 70.0825 54.78C70.5705 54.54 71.0985 54.42 71.6665 54.42C72.2585 54.42 72.7985 54.548 73.2865 54.804C73.7825 55.052 74.2025 55.38 74.5465 55.788C74.8985 56.196 75.1705 56.66 75.3625 57.18C75.5545 57.692 75.6505 58.216 75.6505 58.752C75.6505 59.32 75.5465 59.864 75.3385 60.384C75.1385 60.904 74.8585 61.364 74.4985 61.764C74.1465 62.156 73.7265 62.472 73.2385 62.712C72.7505 62.944 72.2225 63.06 71.6545 63.06ZM68.4985 58.74C68.4985 59.204 68.5745 59.652 68.7265 60.084C68.8785 60.508 69.0945 60.888 69.3745 61.224C69.6545 61.552 69.9865 61.816 70.3705 62.016C70.7545 62.208 71.1825 62.304 71.6545 62.304C72.1345 62.304 72.5705 62.2 72.9625 61.992C73.3545 61.784 73.6865 61.512 73.9585 61.176C74.2305 60.84 74.4385 60.46 74.5825 60.036C74.7345 59.612 74.8105 59.18 74.8105 58.74C74.8105 58.276 74.7305 57.832 74.5705 57.408C74.4185 56.976 74.2025 56.596 73.9225 56.268C73.6425 55.94 73.3105 55.68 72.9265 55.488C72.5425 55.288 72.1185 55.188 71.6545 55.188C71.1745 55.188 70.7385 55.292 70.3465 55.5C69.9545 55.7 69.6225 55.968 69.3505 56.304C69.0785 56.64 68.8665 57.02 68.7145 57.444C68.5705 57.868 68.4985 58.3 68.4985 58.74ZM86.2222 63V56.004L83.1142 61.416H82.6222L79.5142 56.004V63H78.6742V54.48H79.5382L82.8622 60.312L86.2102 54.48H87.0622V63H86.2222ZM90.6848 54.48H97.2608V63H96.4208V55.224H91.5128V63H90.6848V54.48ZM102.787 56.736C102.691 57.864 102.567 58.828 102.415 59.628C102.271 60.428 102.087 61.084 101.863 61.596C101.647 62.1 101.383 62.472 101.071 62.712C100.767 62.944 100.407 63.06 99.991 63.06L99.847 62.256C100.007 62.248 100.159 62.216 100.303 62.16C100.455 62.104 100.599 62.004 100.735 61.86C100.871 61.708 100.999 61.504 101.119 61.248C101.239 60.984 101.351 60.648 101.455 60.24C101.559 59.824 101.651 59.324 101.731 58.74C101.819 58.156 101.895 57.464 101.959 56.664L102.139 54.48H106.471V63H105.643V55.224H102.907L102.787 56.736ZM115.824 62.256V63H110.1V54.48H115.716V55.224H110.94V58.296H115.104V59.004H110.94V62.256H115.824ZM119.692 58.26H120.988L123.772 54.48H124.732L121.744 58.584L125.044 63H124.084L121.06 59.004H119.692V63H118.864V54.48H119.692V58.26ZM126.607 58.68C126.607 58.168 126.695 57.66 126.871 57.156C127.055 56.644 127.319 56.188 127.663 55.788C128.007 55.388 128.431 55.064 128.935 54.816C129.439 54.56 130.011 54.432 130.651 54.432C131.411 54.432 132.059 54.604 132.595 54.948C133.139 55.292 133.539 55.74 133.795 56.292L133.135 56.7C132.999 56.42 132.831 56.184 132.631 55.992C132.439 55.8 132.231 55.644 132.007 55.524C131.783 55.404 131.551 55.32 131.311 55.272C131.071 55.216 130.835 55.188 130.603 55.188C130.091 55.188 129.639 55.292 129.247 55.5C128.855 55.708 128.523 55.98 128.251 56.316C127.987 56.652 127.787 57.032 127.651 57.456C127.515 57.872 127.447 58.296 127.447 58.728C127.447 59.2 127.527 59.652 127.687 60.084C127.855 60.516 128.079 60.9 128.359 61.236C128.647 61.564 128.983 61.828 129.367 62.028C129.759 62.22 130.183 62.316 130.639 62.316C130.879 62.316 131.123 62.288 131.371 62.232C131.627 62.168 131.871 62.072 132.103 61.944C132.343 61.808 132.563 61.644 132.763 61.452C132.963 61.252 133.131 61.012 133.267 60.732L133.963 61.092C133.827 61.412 133.635 61.696 133.387 61.944C133.139 62.184 132.863 62.388 132.559 62.556C132.255 62.724 131.931 62.852 131.587 62.94C131.251 63.028 130.919 63.072 130.591 63.072C130.007 63.072 129.471 62.944 128.983 62.688C128.495 62.432 128.075 62.1 127.723 61.692C127.371 61.276 127.095 60.808 126.895 60.288C126.703 59.76 126.607 59.224 126.607 58.68Z" fill="white"/>
</svg>
